<svg xmlns="http://www.w3.org/2000/svg" xmlns:xlink="http://www.w3.org/1999/xlink" width="330" zoomAndPan="magnify" viewBox="0 0 247.5 52.499999" height="70" preserveAspectRatio="xMidYMid meet" version="1.0"><defs><g/><clipPath id="2be73ee5d6"><path d="M 0.917969 0 L 246.085938 0 L 246.085938 52.003906 L 0.917969 52.003906 Z M 0.917969 0 " clip-rule="nonzero"/></clipPath><clipPath id="3e8030d83c"><path d="M 1 6.617188 L 38.804688 6.617188 L 38.804688 44.507812 L 1 44.507812 Z M 1 6.617188 " clip-rule="nonzero"/></clipPath></defs><g clip-path="url(#2be73ee5d6)"><path fill="#ffffff" d="M 0.917969 0 L 246.085938 0 L 246.085938 52.003906 L 0.917969 52.003906 Z M 0.917969 0 " fill-opacity="1" fill-rule="nonzero"/></g><g clip-path="url(#3e8030d83c)"><path fill="#ffffff" d="M 8.476562 37.695312 L 8.90625 38.117188 L 8.949219 38.160156 C 10.28125 39.542969 10.269531 41.769531 8.90625 43.132812 C 7.542969 44.492188 5.316406 44.507812 3.9375 43.175781 L 3.894531 43.132812 L 3.464844 42.707031 L 2.296875 41.535156 C 0.917969 40.15625 0.917969 37.902344 2.296875 36.523438 C 3.671875 35.144531 5.933594 35.144531 7.308594 36.523438 Z M 32.117188 18.304688 L 32.53125 17.886719 L 33.007812 17.410156 L 37.378906 13.042969 C 38.753906 11.664062 38.753906 9.414062 37.378906 8.03125 C 35.996094 6.652344 33.742188 6.652344 32.367188 8.03125 L 27.996094 12.398438 L 27.105469 13.289062 L 24.601562 15.796875 C 23.222656 17.171875 23.222656 19.425781 24.601562 20.808594 L 27.105469 23.316406 L 27.554688 23.757812 L 32.398438 28.605469 C 33.777344 29.980469 36.03125 29.980469 37.410156 28.605469 C 38.789062 27.226562 38.789062 24.96875 37.410156 23.589844 L 32.566406 18.746094 Z M 2.496094 8.0625 L 2.496094 8.058594 C 3.875 6.683594 6.132812 6.683594 7.507812 8.058594 L 37.34375 37.898438 C 38.726562 39.277344 38.726562 41.535156 37.34375 42.910156 C 35.96875 44.289062 33.714844 44.289062 32.332031 42.910156 L 2.496094 13.070312 C 1.121094 11.695312 1.121094 9.441406 2.496094 8.0625 Z M 2.453125 22.347656 C 3.832031 20.972656 6.085938 20.972656 7.464844 22.347656 L 18.214844 33.097656 L 23.0625 37.941406 C 24.4375 39.320312 24.4375 41.578125 23.0625 42.953125 C 21.679688 44.332031 19.425781 44.332031 18.046875 42.953125 L 2.453125 27.359375 C 1.078125 25.984375 1.078125 23.726562 2.453125 22.347656 Z M 2.453125 22.347656 " fill-opacity="1" fill-rule="evenodd"/></g><g fill="#ffffff" fill-opacity="1"><g transform="translate(52.145869, 34.85019)"><g><path d="M 2.328125 0 L 2.328125 -21.96875 L 4.953125 -21.96875 L 4.953125 -12.015625 L 14.125 -21.96875 L 17.453125 -21.96875 L 9.296875 -13.21875 L 17.578125 0 L 14.375 0 L 7.40625 -11.171875 L 4.953125 -8.5625 L 4.953125 0 Z M 2.328125 0 "/></g></g></g><g fill="#ffffff" fill-opacity="1"><g transform="translate(75.27234, 34.85019)"><g><path d="M 2.328125 0 L 2.328125 -21.96875 L 4.953125 -21.96875 L 4.953125 0 Z M 2.328125 0 "/></g></g></g><g fill="#ffffff" fill-opacity="1"><g transform="translate(87.417546, 34.85019)"><g><path d="M 2.328125 0 L 2.328125 -21.96875 L 4.953125 -21.96875 L 16.671875 -4.359375 L 16.671875 -21.96875 L 19.3125 -21.96875 L 19.3125 0 L 16.671875 0 L 4.953125 -17.609375 L 4.953125 0 Z M 2.328125 0 "/></g></g></g><g fill="#ffffff" fill-opacity="1"><g transform="translate(113.901141, 34.85019)"><g><path d="M 11.765625 0.375 C 9.710938 0.375 7.910156 -0.0976562 6.359375 -1.046875 C 4.816406 -2.003906 3.613281 -3.332031 2.75 -5.03125 C 1.894531 -6.738281 1.46875 -8.710938 1.46875 -10.953125 C 1.46875 -13.191406 1.898438 -15.171875 2.765625 -16.890625 C 3.640625 -18.609375 4.878906 -19.945312 6.484375 -20.90625 C 8.085938 -21.863281 9.972656 -22.34375 12.140625 -22.34375 C 14.617188 -22.34375 16.675781 -21.742188 18.3125 -20.546875 C 19.957031 -19.359375 21.019531 -17.71875 21.5 -15.625 L 18.453125 -15.625 C 18.160156 -16.945312 17.460938 -17.992188 16.359375 -18.765625 C 15.265625 -19.546875 13.859375 -19.9375 12.140625 -19.9375 C 10.535156 -19.9375 9.132812 -19.570312 7.9375 -18.84375 C 6.75 -18.125 5.820312 -17.09375 5.15625 -15.75 C 4.5 -14.414062 4.171875 -12.816406 4.171875 -10.953125 C 4.171875 -9.085938 4.492188 -7.484375 5.140625 -6.140625 C 5.796875 -4.804688 6.695312 -3.78125 7.84375 -3.0625 C 9 -2.34375 10.335938 -1.984375 11.859375 -1.984375 C 14.203125 -1.984375 15.96875 -2.664062 17.15625 -4.03125 C 18.351562 -5.40625 19.039062 -7.285156 19.21875 -9.671875 L 12.875 -9.671875 L 12.875 -11.734375 L 21.90625 -11.734375 L 21.90625 0 L 19.5 0 L 19.28125 -3.609375 C 18.476562 -2.328125 17.5 -1.34375 16.34375 -0.65625 C 15.195312 0.03125 13.671875 0.375 11.765625 0.375 Z M 11.765625 0.375 "/></g></g></g><g fill="#ffffff" fill-opacity="1"><g transform="translate(142.518245, 34.85019)"><g><path d="M 7.46875 0 L 7.46875 -19.8125 L 0.90625 -19.8125 L 0.90625 -21.96875 L 16.671875 -21.96875 L 16.671875 -19.8125 L 10.109375 -19.8125 L 10.109375 0 Z M 7.46875 0 "/></g></g></g><g fill="#ffffff" fill-opacity="1"><g transform="translate(164.954462, 34.85019)"><g><path d="M 2.328125 0 L 2.328125 -21.96875 L 15.921875 -21.96875 L 15.921875 -19.8125 L 4.953125 -19.8125 L 4.953125 -12.140625 L 14.96875 -12.140625 L 14.96875 -10.015625 L 4.953125 -10.015625 L 4.953125 -2.171875 L 15.921875 -2.171875 L 15.921875 0 Z M 2.328125 0 "/></g></g></g><g fill="#ffffff" fill-opacity="1"><g transform="translate(187.516184, 34.85019)"><g><path d="M 11.953125 0.375 C 9.804688 0.375 7.953125 -0.0976562 6.390625 -1.046875 C 4.828125 -2.003906 3.613281 -3.332031 2.75 -5.03125 C 1.894531 -6.738281 1.46875 -8.722656 1.46875 -10.984375 C 1.46875 -13.222656 1.894531 -15.195312 2.75 -16.90625 C 3.613281 -18.613281 4.828125 -19.945312 6.390625 -20.90625 C 7.953125 -21.863281 9.804688 -22.34375 11.953125 -22.34375 C 14.472656 -22.34375 16.519531 -21.738281 18.09375 -20.53125 C 19.675781 -19.332031 20.6875 -17.65625 21.125 -15.5 L 18.203125 -15.5 C 17.867188 -16.863281 17.179688 -17.957031 16.140625 -18.78125 C 15.109375 -19.613281 13.710938 -20.03125 11.953125 -20.03125 C 10.390625 -20.03125 9.019531 -19.664062 7.84375 -18.9375 C 6.675781 -18.21875 5.769531 -17.179688 5.125 -15.828125 C 4.488281 -14.484375 4.171875 -12.867188 4.171875 -10.984375 C 4.171875 -9.097656 4.488281 -7.476562 5.125 -6.125 C 5.769531 -4.78125 6.675781 -3.75 7.84375 -3.03125 C 9.019531 -2.3125 10.390625 -1.953125 11.953125 -1.953125 C 13.710938 -1.953125 15.109375 -2.351562 16.140625 -3.15625 C 17.179688 -3.957031 17.867188 -5.03125 18.203125 -6.375 L 21.125 -6.375 C 20.6875 -4.257812 19.675781 -2.601562 18.09375 -1.40625 C 16.519531 -0.21875 14.472656 0.375 11.953125 0.375 Z M 11.953125 0.375 "/></g></g></g><g fill="#ffffff" fill-opacity="1"><g transform="translate(214.972424, 34.85019)"><g><path d="M 2.328125 0 L 2.328125 -21.96875 L 4.953125 -21.96875 L 4.953125 -12.28125 L 16.359375 -12.28125 L 16.359375 -21.96875 L 18.984375 -21.96875 L 18.984375 0 L 16.359375 0 L 16.359375 -10.109375 L 4.953125 -10.109375 L 4.953125 0 Z M 2.328125 0 "/></g></g></g></svg>